<svg transform="scale(5)" version="1.1"
    baseProfile="full"
    width="100" height="125"
    viewbox="0 0 100 125"
    preserveAspectRatio="xMinYMin meet"
    xmlns="http://www.w3.org/2000/svg">

    <defs>

    </defs>

    <rect x="0" y="0" width="99.5" height="125" stroke="#000" stroke-width="0" fill="rgba(0,0,0,0)"/>

    <path transform="translate(0 13)" stroke-width="2" stroke-linecap="round" fill="none" stroke="#000"
        d="M 25.251262658470836 64.74873734152916
        A 35 35 0 1 1 74.74873734152916 64.74873734152916
        Q 68 73 68 90
        a 18 18 0 0 1 -36 0
        Q 32 73 25.251262658470836 64.74873734152916
        M 68 77.5
        l -27 0
        M 68 85
        l -26.5 0
        M 67 92.5
        l -25 0"/>

    <path class="reverse" transform="translate(0 13)" stroke-width="2" stroke-linecap="round" fill="none" stroke="#000"
        d="M 47.5 62.5
        l -2.5 -27.5
        q -1 -5 -5 -5
        q -4 0 -5 5
        q -.5 5 5 5
        l 15 0
        M 52.5 62.5
        l 2.5 -27.5
        q 1 -5 5 -5
        q 4 0 5 5
        q .5 5 -5 5
        l -15 0
        M 50 -10
        v 8
        M 75 -3.301270189221931
        L 71 3.626933041053576
        M 93.30127018922194 15.000000000000004
        L 86.37306695894642 19.000000000000004
        M 25.00000000000001 -3.3012701892219383
        L 29.00000000000001 3.626933041053576
        M 6.698729810778062 15.000000000000004
        L 13.626933041053576 19.000000000000004"/>
</svg>
