<svg id="common-sense-icon" version="1.1"
    baseProfile="full"
    viewbox="0 0 105 125"
    preserveAspectRatio="xMinYMin meet"
    xmlns="http://www.w3.org/2000/svg">

    <!-- Bulb circle centered at 50, 40 -->
    <g transform="translate(2.5 13)" stroke-width="2" stroke-linecap="round" fill="none" stroke="#000">
        <path
            d="M 25.251262658470836 64.74873734152916
            A 35 35 0 1 1 74.74873734152916 64.74873734152916
            Q 68 73 68 90
            a 18 18 0 0 1 -36 0
            Q 32 73 25.251262658470836 64.74873734152916
            M 68 77.5
            l -27 0
            M 68 85
            l -26.5 0
            M 67 92.5
            l -25 0"/>
        <path
            d="M 47.5 62.5
            l -2.5 -27.5
            q -1 -5 -5 -5
            q -4 0 -5 5
            q -.5 5 5 5
            l 20 0
            q 5.5 0 5 -5
            q -1 -5 -5 -5
            q -4 0 -5 5
            l -2.5 27.5"/>
        <path
            d="M 50 -10
            v 8
            M 71.91855733945387 -4.939702314958353
            L 68.41158816514125 2.2506500554349813
            M 28.081442660546124 -4.939702314958346
            L 31.588411834858743 2.2506500554349884
            M 89.4005376803361 9.21692623371709
            L 83.09645165148233 14.142218036322355
            M 10.599462319663907 9.216926233717079
            L 16.90354834851768 14.142218036322348
            M 98.90738003669028 29.604415459112033
            L 91.08219923081984 31.26770898565411
            M 1.0926199633097156 29.604415459112033
            L 8.917800769180161 31.26770898565411"/>
    </g>
</svg>
