<svg id="medical-care-icon" version="1.1"
    baseProfile="full"
    viewbox="0 0 125 95"
    preserveAspectRatio="xMinYMin meet"
    xmlns="http://www.w3.org/2000/svg">

    <rect x="0" y="0" width="125" height="95"/>

    <g transform="scale(2.3)" stroke-width="2" stroke-linecap="round" fill="none" stroke="#fff">
        <path transform="translate(-2 17) rotate(-45)"
            d="M 5 7
            a 2 2 0 1 1 .0001 0
            q 0 15 5 15
            M 15 7
            a 2 2 0 1 1 .0001 0
            q 0 15 -5 15
            q 0 20 10 20
            a 7.5 7.5 0 0 0 5.303300858899107 -12.803300858899107
            a 7.5 7.5 0 0 1 5.303300858899107 -12.803300858899107
            a 7.5 7.5 0 0 1 7.5 7.5
            a 4 4 0 1 1 -.0001 .0001
            m 2.15 3.55
            a 1 1 0 1 1 .0001 .0001"/>

        <path
            d="M 36.2 1.8
            v 37"/>
    </g>
</svg>
