<svg transform="scale(5)" id="opioid-abuse-icon" version="1.1"
    baseProfile="full"
    viewbox="0 0 135 85"
    preserveAspectRatio="xMinYMin meet"
    xmlns="http://www.w3.org/2000/svg">

    <g transform="translate(50 -31) rotate(-60 17.5 75)" stroke-width="2" stroke-linecap="round" fill="none" stroke="#000">
        <path stroke-linejoin="round"
            d="M 10 5
            h 15
            l -5 5
            v 15
            h -5
            h 5
            a 50 5 0 0 1 10 2.5
            v 80
            a 50 5 0 0 1 -10 2.5
            h -5
            h 5
            q 0 5 -2.5 5
            v 30
            v -30
            q -2.5 0 -2.5 -5
            a 50 5 0 0 1 -10 -2.5
            v -80
            a 50 5 0 0 1 10 -2.5
            v -15
            l -5 -5"/>
        <path
            d="M30 37.5
            h-12.5
            m12.5 10
            h-7.5
            m7.5 10
            h-12.5
            m12.5 10
            h-7.5
            m7.5 10
            h-12.5
            m12.5 10
            h-7.5
            m7.5 10
            h-12.5"/>
    </g>
</svg>
