<svg transform="scale(5)" id="second-amendment-icon" version="1.1"
    baseProfile="full"
    viewbox="0 0 100 100"
    preserveAspectRatio="xMinYMin meet"
    xmlns="http://www.w3.org/2000/svg">

    <rect x="0" y="0" width="107" height="100" stroke-width="1" stroke="#000" fill="none" />

    <g stroke-width="2" stroke-linecap="round" stroke-linejoin="round" fill="none" stroke="#000">
        <path d="M 5 5
            v 20
            l 4 1
            l -4 3
            v 42
            l 1 1.5
            l -1 1.5
            v 21
            h 33
            l 2 -2
            l 5 2
            h 20
            l 6 -4
            v -36
            l -6 -1
            l 6 -4
            v -45
            h -8
            l -1.5 1
            l -1.5 -1
            h -54"/>

        <path d="M 20 20
            q 6 -1 12 0
            q 12 1.5 24 0
            m -36 5
            q 6 -1 12 0
            q 12 1.5 24 0
            m -36 20
            q 4 1 8 0
            q 4 -1 8 0
            q 10 1.5 20 0
            m -36 20
            q 8 1.5 16 0
            q 5 -1 10 0
            q 5 1 10 0
            m -36 5
            q 8 1.5 16 0
            q 5 -1 10 0
            q 5 1 10 0" />
    </g>
</svg>
