<svg transform="scale(5)" id="second-amendment-icon" version="1.1"
    baseProfile="full"
    viewbox="0 0 110 100"
    preserveAspectRatio="xMinYMin meet"
    xmlns="http://www.w3.org/2000/svg">

    <rect x="0" y="0" width="107" height="100" stroke-width="1" stroke="#000" fill="none" />

    <g stroke-width="2" stroke-linecap="round" stroke-linejoin="round" fill="none" stroke="#000">
        <path d="M 10 5
            q -5 0 -5 40
            q 0 20 5 40
            q 2.5 10 10 10
            q 10 0 15 -10
            q 5 -10 -5 -14
            q -15 -5 -12.5 10
            q 1 5 5 5
            h 11 h -11
            q 4 0 5 -5
            h 8
            M 20 95
            h 65
            q 10 0 15 -10
            q 5 -10 -5 -14
            q -3.5 -1 -7 -1.2
            M 10 5
            h 65
            q -5 0 -5 40
            q 0 10 2.7 24.8
            h -50
            h 65" />

        <path d="M 13.5 17.5
            h 50
            M 12.7 22.5
            h 50
            M 12.5 40
            h 50
            M 13.5 55
            h 50" />
    </g>
</svg>
