<svg version="1.1"
    baseProfile="full"
    width="100" height="100"
    viewbox="0 0 100 100"
    preserveAspectRatio="xMinYMin meet"
    xmlns="http://www.w3.org/2000/svg">

    <defs>
        <path id="x" stroke-width="2" stroke-linecap="round" fill="none"
            d="M 0 0
            L 0 0 15 15
            M 15 0
            L 15 0 0 15"/>
    </defs>

    <g transform="translate(-2.5 0)">
        <use x="45" y="5" href="#x" stroke="#000"/>
        <use x="80" y="30" href="#x" stroke="#000"/>
        <!-- <use x="15" y="70" href="#x" stroke="#000"/> -->

        <path stroke="#000" stroke-width="2" stroke-linecap="round" fill="none"
            d="
            M 25 67.5
            A 10 10 0 1 0 25.0001 67.5"/>

        <path stroke="#000" stroke-width="2" stroke-linecap="round" fill="none"
            d="
            M 75 75
            A 10 10 0 1 0 75.00001 75
            Q 70 55 50 55
            Q 15 55 15 15
            M 15 15
            L 15 15 10 20
            M 15 15
            L 15 15 20 20"/>
    </g>
</svg>
